<svg width="50" height="50" viewBox="0 0 50 50" fill="none" xmlns="http://www.w3.org/2000/svg">
<path d="M12.1882 7.29207C12.7637 6.64906 12.7089 5.66125 12.0659 5.08574C11.4229 4.51023 10.4351 4.56495 9.85961 5.20796C7.35762 8.0034 5.61668 11.4989 4.96783 15.3665C4.82505 16.2175 5.39921 17.0232 6.25027 17.166C7.10132 17.3088 7.90698 16.7346 8.04976 15.8835C8.5979 12.6163 10.0687 9.66012 12.1882 7.29207Z" fill="#820D17"/>
<path d="M40.1395 5.20796C39.564 4.56495 38.5762 4.51023 37.9332 5.08574C37.2901 5.66125 37.2354 6.64906 37.8109 7.29207C39.9304 9.66012 41.4012 12.6163 41.9493 15.8835C42.0921 16.7346 42.8978 17.3088 43.7488 17.166C44.5999 17.0232 45.174 16.2175 45.0313 15.3665C44.3824 11.4989 42.6415 8.0034 40.1395 5.20796Z" fill="#820D17"/>
<path fill-rule="evenodd" clip-rule="evenodd" d="M24.9999 4.6875C17.2336 4.6875 10.9377 10.9833 10.9374 18.7496L10.937 20.3125C10.937 24.7357 9.26823 28.7654 6.52338 31.8122C6.1765 32.1973 6.0431 32.7293 6.16726 33.2324C6.29142 33.7356 6.65697 34.1444 7.14314 34.3239C10.3601 35.5114 13.7277 36.3874 17.2091 36.9151C17.1947 37.1083 17.1874 37.3034 17.1874 37.5C17.1874 41.8147 20.6852 45.3125 24.9999 45.3125C29.3147 45.3125 32.8124 41.8147 32.8124 37.5C32.8124 37.3034 32.8051 37.1083 32.7908 36.915C36.2719 36.3872 39.6392 35.5114 42.8559 34.3239C43.3421 34.1444 43.7076 33.7356 43.8318 33.2324C43.9559 32.7293 43.8225 32.1973 43.4757 31.8122C40.7308 28.7654 39.062 24.7357 39.062 20.3125V18.8525L39.0624 18.75C39.0624 10.9835 32.7664 4.6875 24.9999 4.6875ZM20.3124 37.5C20.3124 37.4296 20.314 37.3597 20.317 37.2901C21.8596 37.4291 23.4215 37.5 24.9995 37.5C26.5778 37.5 28.14 37.429 29.6828 37.2901C29.6859 37.3596 29.6874 37.4296 29.6874 37.5C29.6874 40.0888 27.5888 42.1875 24.9999 42.1875C22.4111 42.1875 20.3124 40.0888 20.3124 37.5Z" fill="#820D17"/>
</svg>
