<svg width="34" height="34" viewBox="0 0 34 34" fill="none" xmlns="http://www.w3.org/2000/svg">
<path d="M7.39975 3.1875C6.69526 3.1875 6.01964 3.46735 5.52149 3.9655L3.681 5.806C1.60633 7.88066 1.60633 11.2443 3.681 13.319C5.5753 15.2133 8.54426 15.378 10.6254 13.813C11.5128 14.4792 12.6168 14.875 13.8125 14.875C15.0084 14.875 16.1125 14.4791 17 13.8127C17.8875 14.4791 18.9916 14.875 20.1875 14.875C21.3832 14.875 22.4872 14.4792 23.3746 13.813C25.4557 15.378 28.4247 15.2133 30.319 13.319C32.3937 11.2443 32.3937 7.88066 30.319 5.806L28.4785 3.9655C27.9804 3.46736 27.3047 3.18751 26.6003 3.18751L7.39975 3.1875Z" fill="#1A1A1A"/>
<path fill-rule="evenodd" clip-rule="evenodd" d="M4.25 28.6875V16.2847C6.26196 17.2388 8.61318 17.2381 10.6256 16.2837C11.5921 16.7425 12.6737 17 13.8125 17C14.9516 17 16.0334 16.7424 17 16.2834C17.9666 16.7424 19.0484 17 20.1875 17C21.3263 17 22.4079 16.7425 23.3744 16.2837C25.3868 17.2381 27.738 17.2388 29.75 16.2847V28.6875H30.8125C31.3993 28.6875 31.875 29.1632 31.875 29.75C31.875 30.3368 31.3993 30.8125 30.8125 30.8125H3.1875C2.6007 30.8125 2.125 30.3368 2.125 29.75C2.125 29.1632 2.6007 28.6875 3.1875 28.6875H4.25ZM8.5 20.1875C8.5 19.6007 8.9757 19.125 9.5625 19.125H13.8125C14.3993 19.125 14.875 19.6007 14.875 20.1875V24.4375C14.875 25.0243 14.3993 25.5 13.8125 25.5H9.5625C8.9757 25.5 8.5 25.0243 8.5 24.4375V20.1875ZM20.1875 19.125C19.6007 19.125 19.125 19.6007 19.125 20.1875V27.625C19.125 28.2118 19.6007 28.6875 20.1875 28.6875H24.4375C25.0243 28.6875 25.5 28.2118 25.5 27.625V20.1875C25.5 19.6007 25.0243 19.125 24.4375 19.125H20.1875Z" fill="#1A1A1A"/>
</svg>
