<svg width="51" height="50" viewBox="0 0 51 50" fill="none" xmlns="http://www.w3.org/2000/svg">
<path fill-rule="evenodd" clip-rule="evenodd" d="M25.5 4.6875C14.2817 4.6875 5.1875 13.7817 5.1875 25C5.1875 36.2183 14.2817 45.3125 25.5 45.3125C36.7183 45.3125 45.8125 36.2183 45.8125 25C45.8125 13.7817 36.7183 4.6875 25.5 4.6875ZM27.0625 12.5C27.0625 11.6371 26.3629 10.9375 25.5 10.9375C24.6371 10.9375 23.9375 11.6371 23.9375 12.5V25C23.9375 25.8629 24.6371 26.5625 25.5 26.5625H34.875C35.7379 26.5625 36.4375 25.8629 36.4375 25C36.4375 24.1371 35.7379 23.4375 34.875 23.4375H27.0625V12.5Z" fill="#820D17"/>
</svg>
