<svg width="50" height="50" viewBox="0 0 50 50" fill="none" xmlns="http://www.w3.org/2000/svg">
<path fill-rule="evenodd" clip-rule="evenodd" d="M4.6875 10.9375C4.6875 7.48572 7.48572 4.6875 10.9375 4.6875H39.0625C42.5143 4.6875 45.3125 7.48572 45.3125 10.9375V31.25C45.3125 34.7018 42.5143 37.5 39.0625 37.5H32.8125V38.0362C32.8125 39.2794 33.3064 40.4716 34.1854 41.3507L35.4799 42.6451C35.9267 43.092 36.0604 43.7641 35.8186 44.3479C35.5767 44.9318 35.007 45.3125 34.375 45.3125H15.625C14.993 45.3125 14.4233 44.9318 14.1814 44.3479C13.9396 43.7641 14.0733 43.092 14.5201 42.6451L15.8146 41.3507C16.6936 40.4717 17.1875 39.2794 17.1875 38.0362V37.5H10.9375C7.48572 37.5 4.6875 34.7018 4.6875 31.25V10.9375ZM7.8125 10.9375V26.5625C7.8125 28.2884 9.21161 29.6875 10.9375 29.6875H39.0625C40.7884 29.6875 42.1875 28.2884 42.1875 26.5625V10.9375C42.1875 9.21161 40.7884 7.8125 39.0625 7.8125H10.9375C9.21161 7.8125 7.8125 9.21161 7.8125 10.9375Z" fill="#820D17"/>
</svg>
