<svg width="51" height="50" viewBox="0 0 51 50" fill="none" xmlns="http://www.w3.org/2000/svg">
<path d="M41.125 29.6875V24.2188C41.125 20.3355 37.977 17.1875 34.0938 17.1875H30.9688C29.6743 17.1875 28.625 16.1382 28.625 14.8438V11.7188C28.625 7.8355 25.477 4.6875 21.5938 4.6875H17.6875M17.6875 31.25H33.3125M17.6875 37.5H25.5M22.375 4.6875H12.2188C10.9243 4.6875 9.875 5.73683 9.875 7.03125V42.9688C9.875 44.2632 10.9243 45.3125 12.2187 45.3125H38.7812C40.0757 45.3125 41.125 44.2632 41.125 42.9688V23.4375C41.125 13.0822 32.7303 4.6875 22.375 4.6875Z" stroke="#820D17" stroke-width="4" stroke-linecap="round" stroke-linejoin="round"/>
</svg>
