<svg width="50" height="50" viewBox="0 0 50 50" fill="none" xmlns="http://www.w3.org/2000/svg">
<path d="M7.8125 10.1563C7.8125 8.86183 8.86183 7.8125 10.1562 7.8125H19.5312C20.8257 7.8125 21.875 8.86183 21.875 10.1562V19.5312C21.875 20.8257 20.8257 21.875 19.5312 21.875H10.1563C8.86183 21.875 7.8125 20.8257 7.8125 19.5312V10.1563Z" stroke="#820D17" stroke-width="4" stroke-linecap="round" stroke-linejoin="round"/>
<path d="M7.8125 30.4688C7.8125 29.1743 8.86183 28.125 10.1562 28.125H19.5312C20.8257 28.125 21.875 29.1743 21.875 30.4688V39.8438C21.875 41.1382 20.8257 42.1875 19.5312 42.1875H10.1563C8.86183 42.1875 7.8125 41.1382 7.8125 39.8438V30.4688Z" stroke="#820D17" stroke-width="4" stroke-linecap="round" stroke-linejoin="round"/>
<path d="M28.125 10.1563C28.125 8.86183 29.1743 7.8125 30.4688 7.8125H39.8438C41.1382 7.8125 42.1875 8.86183 42.1875 10.1562V19.5312C42.1875 20.8257 41.1382 21.875 39.8438 21.875H30.4688C29.1743 21.875 28.125 20.8257 28.125 19.5312V10.1563Z" stroke="#820D17" stroke-width="4" stroke-linecap="round" stroke-linejoin="round"/>
<path d="M14.0625 14.0625H15.625V15.625H14.0625V14.0625Z" stroke="#820D17" stroke-width="4" stroke-linecap="round" stroke-linejoin="round"/>
<path d="M14.0625 34.375H15.625V35.9375H14.0625V34.375Z" stroke="#820D17" stroke-width="4" stroke-linecap="round" stroke-linejoin="round"/>
<path d="M34.375 14.0625H35.9375V15.625H34.375V14.0625Z" stroke="#820D17" stroke-width="4" stroke-linecap="round" stroke-linejoin="round"/>
<path d="M28.125 28.125H29.6875V29.6875H28.125V28.125Z" stroke="#820D17" stroke-width="4" stroke-linecap="round" stroke-linejoin="round"/>
<path d="M28.125 40.625H29.6875V42.1875H28.125V40.625Z" stroke="#820D17" stroke-width="4" stroke-linecap="round" stroke-linejoin="round"/>
<path d="M40.625 28.125H42.1875V29.6875H40.625V28.125Z" stroke="#820D17" stroke-width="4" stroke-linecap="round" stroke-linejoin="round"/>
<path d="M40.625 40.625H42.1875V42.1875H40.625V40.625Z" stroke="#820D17" stroke-width="4" stroke-linecap="round" stroke-linejoin="round"/>
<path d="M34.375 34.375H35.9375V35.9375H34.375V34.375Z" stroke="#820D17" stroke-width="4" stroke-linecap="round" stroke-linejoin="round"/>
</svg>
