<svg width="51" height="50" viewBox="0 0 51 50" fill="none" xmlns="http://www.w3.org/2000/svg">
<path d="M12.2188 7.8125C9.19844 7.8125 6.75 10.2609 6.75 13.2812C6.75 16.3016 9.19844 18.75 12.2188 18.75H38.7812C41.8016 18.75 44.25 16.3016 44.25 13.2812C44.25 10.2609 41.8016 7.8125 38.7812 7.8125H12.2188Z" fill="#820D17"/>
<path d="M8.3125 23.4375C7.44956 23.4375 6.75 24.1371 6.75 25C6.75 25.8629 7.44956 26.5625 8.3125 26.5625H42.6875C43.5504 26.5625 44.25 25.8629 44.25 25C44.25 24.1371 43.5504 23.4375 42.6875 23.4375H8.3125Z" fill="#820D17"/>
<path d="M6.75 32.8125C6.75 31.9496 7.44956 31.25 8.3125 31.25H42.6875C43.5504 31.25 44.25 31.9496 44.25 32.8125C44.25 33.6754 43.5504 34.375 42.6875 34.375H8.3125C7.44956 34.375 6.75 33.6754 6.75 32.8125Z" fill="#820D17"/>
<path d="M8.3125 39.0625C7.44956 39.0625 6.75 39.7621 6.75 40.625C6.75 41.4879 7.44956 42.1875 8.3125 42.1875H42.6875C43.5504 42.1875 44.25 41.4879 44.25 40.625C44.25 39.7621 43.5504 39.0625 42.6875 39.0625H8.3125Z" fill="#820D17"/>
</svg>
