<svg width="50" height="50" viewBox="0 0 50 50" fill="none" xmlns="http://www.w3.org/2000/svg">
<path d="M11.5967 9.70258C12.3823 9.48899 13.2089 9.375 14.0622 9.375H35.9372C36.7905 9.375 37.6171 9.489 38.4027 9.70258C37.3763 7.65529 35.2584 6.25 32.8122 6.25H17.1872C14.741 6.25 12.6231 7.65528 11.5967 9.70258Z" fill="#820D17"/>
<path d="M4.6875 25C4.6875 21.5482 7.48572 18.75 10.9375 18.75H39.0625C42.5143 18.75 45.3125 21.5482 45.3125 25V37.5C45.3125 40.9518 42.5143 43.75 39.0625 43.75H10.9375C7.48572 43.75 4.6875 40.9518 4.6875 37.5V25Z" fill="#820D17"/>
<path d="M10.9372 15.625C10.0839 15.625 9.2573 15.739 8.47168 15.9526C9.49812 13.9053 11.616 12.5 14.0622 12.5H35.9372C38.3834 12.5 40.5013 13.9053 41.5277 15.9526C40.7421 15.739 39.9155 15.625 39.0622 15.625H10.9372Z" fill="#820D17"/>
</svg>
