<svg width="25" height="25" viewBox="0 0 25 25" fill="none" xmlns="http://www.w3.org/2000/svg">
<path fill-rule="evenodd" clip-rule="evenodd" d="M4.09998 12.5C4.09998 12.0029 4.50292 11.6 4.99998 11.6L17.7655 11.6L12.7762 6.84875C12.4179 6.50423 12.4067 5.9345 12.7512 5.5762C13.0957 5.21791 13.6655 5.20674 14.0238 5.55125L20.6238 11.8512C20.8002 12.0209 20.9 12.2552 20.9 12.5C20.9 12.7448 20.8002 12.9791 20.6238 13.1487L14.0238 19.4487C13.6655 19.7933 13.0957 19.7821 12.7512 19.4238C12.4067 19.0655 12.4179 18.4958 12.7762 18.1512L17.7655 13.4L4.99998 13.4C4.50292 13.4 4.09998 12.9971 4.09998 12.5Z" fill="white"/>
</svg>
