<svg width="50" height="50" viewBox="0 0 50 50" fill="none" xmlns="http://www.w3.org/2000/svg">
<path d="M7.03125 40.625H42.9688M7.03125 40.625C5.73683 40.625 4.6875 39.5757 4.6875 38.2812M7.03125 40.625H22.6562C23.9507 40.625 25 39.5757 25 38.2812M4.6875 38.2812V11.7187M4.6875 38.2812V35.1562C4.6875 33.8618 5.73683 32.8125 7.03125 32.8125M45.3125 38.2812V11.7188M45.3125 38.2812C45.3125 39.5757 44.2632 40.625 42.9688 40.625M45.3125 38.2812V35.1562C45.3125 33.8618 44.2632 32.8125 42.9688 32.8125M42.9688 40.625H27.3438C26.0493 40.625 25 39.5757 25 38.2812M45.3125 11.7188C45.3125 10.4243 44.2632 9.375 42.9688 9.375H7.03125C5.73683 9.375 4.6875 10.4243 4.6875 11.7187M45.3125 11.7188V14.8438C45.3125 16.1382 44.2632 17.1875 42.9688 17.1875M4.6875 11.7187V14.8438C4.6875 16.1382 5.73683 17.1875 7.03125 17.1875M7.03125 17.1875H42.9688M7.03125 17.1875H22.6562C23.9507 17.1875 25 18.2368 25 19.5312M7.03125 17.1875C5.73683 17.1875 4.6875 18.2368 4.6875 19.5312V22.6562C4.6875 23.9507 5.73683 25 7.03125 25M42.9688 17.1875H27.3438C26.0493 17.1875 25 18.2368 25 19.5312M42.9688 17.1875C44.2632 17.1875 45.3125 18.2368 45.3125 19.5312V22.6562C45.3125 23.9507 44.2632 25 42.9688 25M7.03125 25H22.6562M7.03125 25C5.73683 25 4.6875 26.0493 4.6875 27.3438V30.4688C4.6875 31.7632 5.73683 32.8125 7.03125 32.8125M25 22.6562V19.5312M25 22.6562C25 23.9507 23.9507 25 22.6562 25M25 22.6562C25 23.9507 26.0493 25 27.3438 25M22.6562 25C23.9507 25 25 26.0493 25 27.3438M27.3438 25H42.9688M27.3438 25C26.0493 25 25 26.0493 25 27.3438M42.9688 25C44.2632 25 45.3125 26.0493 45.3125 27.3438V30.4688C45.3125 31.7632 44.2632 32.8125 42.9688 32.8125M7.03125 32.8125H22.6562M25 30.4688V27.3438M25 30.4688C25 31.7632 23.9507 32.8125 22.6562 32.8125M25 30.4688C25 31.7632 26.0493 32.8125 27.3438 32.8125M22.6562 32.8125C23.9507 32.8125 25 33.8618 25 35.1562M25 38.2812V35.1562M25 35.1562C25 33.8618 26.0493 32.8125 27.3438 32.8125M27.3438 32.8125H42.9688" stroke="#820D17" stroke-width="3" stroke-linecap="round" stroke-linejoin="round"/>
</svg>
