<svg width="51" height="50" viewBox="0 0 51 50" fill="none" xmlns="http://www.w3.org/2000/svg">
<path d="M9.875 13.2812C9.875 8.53505 13.7226 4.6875 18.4687 4.6875C23.2149 4.6875 27.0625 8.53505 27.0625 13.2812C27.0625 18.0274 23.2149 21.875 18.4687 21.875C13.7226 21.875 9.875 18.0274 9.875 13.2812Z" fill="#820D17"/>
<path d="M30.1875 17.9688C30.1875 14.0855 33.3355 10.9375 37.2187 10.9375C41.102 10.9375 44.25 14.0855 44.25 17.9688C44.25 21.852 41.102 25 37.2187 25C33.3355 25 30.1875 21.852 30.1875 17.9688Z" fill="#820D17"/>
<path d="M3.625 39.8438C3.625 31.6458 10.2708 25 18.4687 25C26.6667 25 33.3125 31.6458 33.3125 39.8438V39.8491C33.3125 39.932 33.3117 40.0153 33.3104 40.0978C33.3013 40.6363 33.0155 41.1323 32.554 41.4101C28.439 43.8878 23.6179 45.3125 18.4687 45.3125C13.3196 45.3125 8.49853 43.8878 4.38346 41.4101C3.92201 41.1323 3.63619 40.6363 3.62714 40.0978C3.62572 40.0133 3.625 39.9286 3.625 39.8438Z" fill="#820D17"/>
<path d="M36.4372 39.8503C36.4371 39.9504 36.4363 40.0508 36.4346 40.1503C36.4227 40.8559 36.2525 41.537 35.9493 42.1499C36.3692 42.1749 36.7924 42.1875 37.2184 42.1875C40.5428 42.1875 43.6918 41.4173 46.4926 40.0443C47.0072 39.792 47.3423 39.2782 47.3659 38.7056C47.3717 38.5648 47.3747 38.4233 47.3747 38.2812C47.3747 32.6721 42.8276 28.125 37.2184 28.125C35.6633 28.125 34.1899 28.4745 32.8723 29.0993C35.1114 32.0961 36.4372 35.8151 36.4372 39.8438V39.8503Z" fill="#820D17"/>
</svg>
